<svg xmlns="http://www.w3.org/2000/svg" xmlns:xlink="http://www.w3.org/1999/xlink" width="101.428" height="197.09" viewBox="0 0 101.428 197.09">
  <defs>
    <linearGradient id="linear-gradient" y1="0.5" x2="1" y2="0.5" gradientUnits="objectBoundingBox">
      <stop offset="0" stop-color="#92a4ff"/>
      <stop offset="1" stop-color="#fcd6f8"/>
    </linearGradient>
  </defs>
  <path id="hotspot" d="M47.12,195.391a4.606,4.606,0,0,0,3.594,1.7,4.486,4.486,0,0,0,3.594-1.7l45.658-47.357a4.946,4.946,0,0,0,1.461-3.594V52.649a4.735,4.735,0,0,0-1.461-3.594L54.308,1.7A4.606,4.606,0,0,0,50.714,0,4.486,4.486,0,0,0,47.12,1.7L1.461,49.016A4.946,4.946,0,0,0,0,52.61V144.4A4.735,4.735,0,0,0,1.461,148L47.12,195.352ZM51.939,50,68.053,73.78a2.961,2.961,0,0,1,.474,1.7v46.132a3.145,3.145,0,0,1-.474,1.7L51.939,147.087q-.474.948-1.185.948t-1.185-.948L33.454,123.31a2.961,2.961,0,0,1-.474-1.7V75.479a3.145,3.145,0,0,1,.474-1.7L49.569,50q.474-.948,1.185-.948T51.939,50ZM12.047,53.36,47.831,12.718a1.659,1.659,0,0,1,1.817-.355,1.448,1.448,0,0,1,1.066,1.58V26.186a2.638,2.638,0,0,1-.237,1.185L23.066,61.5A2.065,2.065,0,0,1,22,62.089a1.128,1.128,0,0,1-1.066-.355l-8.65-6a1.19,1.19,0,0,1-.592-.948,2.076,2.076,0,0,1,.355-1.461ZM9.163,65.6a1.324,1.324,0,0,1,.711-1.3,1.88,1.88,0,0,1,1.7.118l8.887,6a1.619,1.619,0,0,1,.711,1.461v53.6a1.608,1.608,0,0,1-.474,1.185l-9.124,7.939a1.215,1.215,0,0,1-1.58.237,1.492,1.492,0,0,1-.829-1.461V65.6Z" fill="url(#linear-gradient)"/>
</svg>
