<svg xmlns="http://www.w3.org/2000/svg" width="651.002" height="146.968" viewBox="0 0 651.002 146.968">
  <g id="Idsardi_Callidora_Makeup1_Logo_SVG" transform="translate(0.006 -0.003)">
    <path id="Path_792" data-name="Path 792" d="M42.815,14.14c3.148,0,10.034.691,20.7,2.092a8.626,8.626,0,0,0,5.545-1.442A2.479,2.479,0,0,1,70.6,14.2a1.555,1.555,0,0,1,.955.447,3.745,3.745,0,0,1,1.077,2.275c.183,1.2.1,2.437.223,3.636l.487,5.464,1.1,12.126.427,4.794a9.34,9.34,0,0,1,.163,1.848A2.169,2.169,0,0,1,73.2,46.883a2.5,2.5,0,0,1-2.092-1.828Q66.9,28.023,58.008,22a28.092,28.092,0,0,0-15.193-3.92q-10.481,0-12.573,8.653a15.97,15.97,0,0,0,1.564,10.481q3.138,6.033,20.962,13.629Q73.974,60.259,80.534,66.3c5.058,4.9,7.678,10.3,7.861,16.25q0,19.9-20.7,29.067-12.309,5.515-28.823,5.5-23.826,0-34.043-13.894Q-1.2,94.85,1.154,85.679a14.928,14.928,0,0,1,4.753-7.82c3.636-2.945,9.445-3.717,13.914-2.7a14.4,14.4,0,0,1,9.628,7.394,13.4,13.4,0,0,1,1.3,6.8c-.528,2.8-2.458,5.586-5.769,8.389-2.275,2.092-3.494,4.1-3.676,6.033.162,3.676,2.966,6.459,8.389,8.389a24.214,24.214,0,0,0,7.069,1.056q15.447,0,19.114-11.781a17.242,17.242,0,0,0,.792-4.976q0-9.689-14.4-17.022c-1.93-1.056-4.976-2.437-9.161-4.184Q13.971,66.606,7.959,59.274A26.675,26.675,0,0,1,2.19,45.136q-1.828-19.9,18.078-27.5,9.415-3.412,22.526-3.412Z" transform="translate(0 14.064)" fill="#fff6f0" stroke="#fff6f0" stroke-miterlimit="10" stroke-width="1"/>
    <path id="Path_793" data-name="Path 793" d="M102.141,14.14q21.206,0,34.043,12.573c1.219,1.219,2.275,2.356,3.148,3.412q8.1,10.481,4.712,21.49-3.93,10.755-17.814,12.573c-11.4,1.5-22.831,2.742-34.267,4.1-.812.1-1.6.183-2.417.284-1.016.122-1.4-.1-1.381.894a15.373,15.373,0,0,0,1.036,3.9,44.774,44.774,0,0,0,2.823,7.048,34.177,34.177,0,0,0,17.712,16.514q15.722,6.551,28.559-2.092a28.181,28.181,0,0,0,5.951-5.464c1.706-2.072,2.945-4.57,5.037-6.378a1.483,1.483,0,0,1,1.1-.487,1.254,1.254,0,0,1,.853.752,3.831,3.831,0,0,1,.284,2.336c-.345,2.194-1.5,4.286-2.377,6.3a45.285,45.285,0,0,1-3.006,5.626,38.6,38.6,0,0,1-8.023,9.12c-6.845,5.626-15.437,8.531-24.111,9.73a81.2,81.2,0,0,1-11.314.731q-24.1,0-39.812-16.493A49.031,49.031,0,0,1,51.868,80.967a41.042,41.042,0,0,1-2.092-9.953Q46.882,38.261,68.118,23.341q13.345-9.171,34.043-9.161Zm-.264,3.92q-10.481,0-14.665,17.55a59.72,59.72,0,0,0,0,29.331q30.377-3.656,29.859-22.79V39.794q-1.828-18.86-11.517-21.226a13.405,13.405,0,0,0-3.676-.528Z" transform="translate(50.461 14.064)" fill="#fff6f0" stroke="#fff6f0" stroke-miterlimit="10" stroke-width="1"/>
    <path id="Path_794" data-name="Path 794" d="M247.441,14.14q21.206,0,34.043,12.573c1.219,1.219,2.275,2.356,3.148,3.412q8.1,10.481,4.712,21.49-3.93,10.755-17.814,12.573c-11.192,1.483-22.425,2.742-33.637,4.022-1.523.183-3.047.345-4.57.508,1.909,9.547,6.7,18.606,14.747,24.334a53,53,0,0,0,6.967,3.88q15.722,6.551,28.559-2.092a29.139,29.139,0,0,0,8.389-8.9,9.644,9.644,0,0,1,2.925-3.148,1.1,1.1,0,0,1,.873-.264.926.926,0,0,1,.467.366,3.151,3.151,0,0,1,.589,1.991c-.041,1.645-.873,3.169-1.442,4.651a48.054,48.054,0,0,1-2.722,5.87,39.589,39.589,0,0,1-7.455,9.628c-6.317,5.911-14.5,9.283-22.932,10.847a78.435,78.435,0,0,1-14.3,1.219q-24.1,0-39.812-16.493a49.031,49.031,0,0,1-11.009-19.642,41.042,41.042,0,0,1-2.092-9.953q-2.894-32.753,18.342-47.673,13.345-9.171,34.064-9.161Zm-.264,3.92q-10.481,0-14.665,17.55a59.72,59.72,0,0,0,0,29.331q30.377-3.656,29.859-22.79V39.794q-1.828-18.86-11.517-21.226a13.405,13.405,0,0,0-3.677-.528Z" transform="translate(200.296 14.064)" fill="#fff6f0" stroke="#fff6f0" stroke-miterlimit="10" stroke-width="1"/>
    <path id="Path_795" data-name="Path 795" d="M299.383,14.5a2.319,2.319,0,0,1,1.056.264,2.511,2.511,0,0,1,.792,1.828v9.689q9.689-11.273,25.939-11.273,37.963.274,44,36.663L375.35,88.6q2.346,18.616,11.781,22.262c1.828.609,4.225.772,5.891,1.706a2,2,0,0,1,1.117,1.747,2.041,2.041,0,0,1-1.5,1.686c-1.5.447-3.6.122-5.159.122H336.859c-1.747,0-3.494.1-5.24.1-1.422,0-5.261.183-5.18-2.133a1.742,1.742,0,0,1,.873-1.32c1.3-.894,2.925-.772,4.367-1.239a11.4,11.4,0,0,0,3.819-2.052c2.336-1.95,3.23-4.611,3.7-7.516.528-3.148.427-7.6-.264-13.365L334.746,48q-3.412-26.446-17.814-26.2a10.576,10.576,0,0,1-2.092.264q-10.481,1.31-12.573,16.758a144.715,144.715,0,0,0-1.056,20.17V88.58q0,18.616,9.161,22.262c1.666.67,3.555.833,5.159,1.564a2.1,2.1,0,0,1,1.3,1.5,1.857,1.857,0,0,1-.833,1.686,3.384,3.384,0,0,1-1.869.528c-6.317.2-12.7-.041-19.012-.041H253.64c-1.584,0-3.514.325-4.387-1.422a1.382,1.382,0,0,1-.163-.63,1.28,1.28,0,0,1,.2-.609,2.592,2.592,0,0,1,1.869-1.259c6.987-.873,11.172-4.53,12.573-11.009a60.743,60.743,0,0,0,1.056-12.573V63.433q0-17.824-4.976-22.79A15.71,15.71,0,0,0,255.57,37.8c-1.5-.731-3.331-1.056-4.773-2.031a1.9,1.9,0,0,1-.894-1.1,1.692,1.692,0,0,1,.386-1.361c.853-1.117,2.112-1.056,3.372-1.117,1.462-.061,2.925-.162,4.367-.325a71.5,71.5,0,0,0,8.551-1.422,72.629,72.629,0,0,0,16.331-5.891,82.505,82.505,0,0,0,13.812-8.815c.528-.345.955-.609,1.3-.792a2.6,2.6,0,0,1,1.3-.528Z" transform="translate(256.354 14.353)" fill="#fff6f0" stroke="#fff6f0" stroke-miterlimit="10" stroke-width="1"/>
    <path id="Path_796" data-name="Path 796" d="M167.037,72.776c-1.828-13.1-8.49-25.918-11.984-38.492-.244-.833-.467-1.686-.711-2.519a18.736,18.736,0,0,1-.853-7.7c.406-2.539,1.991-5.078,4.469-5.911,1.117-.386,2.58-.569,2.945-1.706.528-1.706-1.95-2.6-3.737-2.6H101.713A5.209,5.209,0,0,0,99.3,14.4a1.54,1.54,0,0,0-.833,1.137c-.081.833.691,1.5,1.462,1.787,3.636,1.4,5.85,3.737,7.983,6.967,5.972,9.039,10.359,19.032,14.747,28.965q12.979,29.524,25.939,59.047a4.849,4.849,0,0,0,4.448,2.9h.65c2.112,0,6.947-10.745,7.82-12.553a69.784,69.784,0,0,0,5.058-14.868,41.423,41.423,0,0,0,.467-15.072Z" transform="translate(101.019 13.765)" fill="#fff6f0" stroke="#fff6f0" stroke-miterlimit="10" stroke-width="1"/>
    <g id="Group_583" data-name="Group 583" transform="translate(272.856 0.501)">
      <path id="Path_797" data-name="Path 797" d="M248.447,43.784c-1.239.427-2.376,1.158-3.636,1.564a21.95,21.95,0,0,1-4.428.894,21.208,21.208,0,0,1-12.776-2.8h-.041q-.4-.335-.792-.609c-.142-.1-.264-.2-.386-.284-.406-.284-.812-.548-1.239-.792a21.2,21.2,0,0,0-11.781-2.9.456.456,0,0,1-.427-.67c.752-1.361,1.706-4.184,1.93-4.692a51.862,51.862,0,0,0,2.011-6.073c1.422-5.383.772-11.436,3.473-16.29A21.032,21.032,0,0,1,223,7.384,20.352,20.352,0,0,1,226.388,4.3l1.767-1.28a.846.846,0,0,0-.3-1.5A40.607,40.607,0,0,0,217,.519c-.284,0-.548,0-.833.02-1.077.041-2.153.1-3.25.2a53.614,53.614,0,0,0-28.66,11.8,29.265,29.265,0,0,0-10.136,17.1,57.349,57.349,0,0,0-1.178,17.367c.163,1.666.406,3.311.711,4.916a.374.374,0,0,1-.162.366l-.752.487c-.264.183-.528.345-.772.528-.162.122-.345.223-.508.345-.366.244-.731.508-1.077.772-.366.244-.711.508-1.077.772-.548.406-1.077.812-1.625,1.239-.122.1-.264.2-.386.3-.548.406-1.077.853-1.584,1.28l-.67.548-.02.02-.02.02-.061.061c-.264.223-.528.447-.772.65a2.569,2.569,0,0,1-.264.223c-.041.041-.081.061-.122.1-.508.427-1,.894-1.483,1.341-.406.386-.833.752-1.219,1.137-.2.183-.386.366-.589.548-.386.386-.772.752-1.137,1.137q-1.249,1.249-2.437,2.559a91.393,91.393,0,0,0-5.911,7.211A85.019,85.019,0,0,0,134.983,132.1c.1,1.1.223,2.173.366,3.25a2.7,2.7,0,0,0,3.006,2.3c.345-.041.691-.081,1.036-.1a53.15,53.15,0,0,1,34.348,8.47,2.727,2.727,0,0,0,3.961-1.137,53.472,53.472,0,0,0,1.686-41.091c-.386-1.036-.812-2.052-1.239-3.067a21.423,21.423,0,0,1-.914-4.428,20.556,20.556,0,0,1-.1-2.5,22.261,22.261,0,0,1,.691-4.956,21.391,21.391,0,0,1,4.591-8.653c.386-.447.772-.873,1.2-1.28.366-.345.731-.691,1.117-1,.386-.325.772-.63,1.178-.914.427-.3.853-.609,1.3-.873,2.925-1.808,5.261.284,8.206,1.544a29.959,29.959,0,0,0,8.369,2.641c5.18.589,10.583-1.341,15.3-3.311.284-.122.548-.223.833-.345l.975-.427c.142-.061.284-.122.406-.183.142-.061.264-.142.406-.2.3-.142.609-.3.934-.447.264-.142.528-.264.792-.406.325-.162.63-.345.934-.508.244-.142.488-.264.731-.406.325-.183.65-.386.975-.569.223-.142.447-.264.67-.406.325-.2.65-.406.975-.63.2-.142.427-.284.63-.406l.975-.67.609-.427c.325-.244.65-.467.955-.711.2-.142.386-.284.589-.447.3-.244.63-.508.934-.752.183-.163.386-.3.569-.467.325-.264.63-.548.934-.812.142-.142.3-.264.467-.406.041-.041.081-.061.122-.1a53.351,53.351,0,0,0,12.573-17.083c.548-1.178,1.056-2.4,1.523-3.616.284-.731,1.706-3.412-.081-2.8Z" transform="translate(-134.583 -0.501)" fill="#fff6f0"/>
      <path id="Path_798" data-name="Path 798" d="M248.447,43.784c-1.239.427-2.376,1.158-3.636,1.564a21.95,21.95,0,0,1-4.428.894,21.208,21.208,0,0,1-12.776-2.8h-.041q-.4-.335-.792-.609c-.142-.1-.264-.2-.386-.284-.406-.284-.812-.548-1.239-.792a21.2,21.2,0,0,0-11.781-2.9.456.456,0,0,1-.427-.67c.752-1.361,1.706-4.184,1.93-4.692a51.862,51.862,0,0,0,2.011-6.073c1.422-5.383.772-11.436,3.473-16.29A21.032,21.032,0,0,1,223,7.384,20.352,20.352,0,0,1,226.388,4.3l1.767-1.28a.846.846,0,0,0-.3-1.5A40.607,40.607,0,0,0,217,.519c-.284,0-.548,0-.833.02-1.077.041-2.153.1-3.25.2a53.614,53.614,0,0,0-28.66,11.8,29.265,29.265,0,0,0-10.136,17.1,57.349,57.349,0,0,0-1.178,17.367c.163,1.666.406,3.311.711,4.916a.374.374,0,0,1-.162.366l-.752.487c-.264.183-.528.345-.772.528-.162.122-.345.223-.508.345-.366.244-.731.508-1.077.772-.366.244-.711.508-1.077.772-.548.406-1.077.812-1.625,1.239-.122.1-.264.2-.386.3-.548.406-1.077.853-1.584,1.28l-.67.548-.02.02-.02.02-.061.061c-.264.223-.528.447-.772.65a2.569,2.569,0,0,1-.264.223c-.041.041-.081.061-.122.1-.508.427-1,.894-1.483,1.341-.406.386-.833.752-1.219,1.137-.2.183-.386.366-.589.548-.386.386-.772.752-1.137,1.137q-1.249,1.249-2.437,2.559a91.393,91.393,0,0,0-5.911,7.211A85.019,85.019,0,0,0,134.983,132.1c.1,1.1.223,2.173.366,3.25a2.7,2.7,0,0,0,3.006,2.3c.345-.041.691-.081,1.036-.1a53.15,53.15,0,0,1,34.348,8.47,2.727,2.727,0,0,0,3.961-1.137,53.472,53.472,0,0,0,1.686-41.091c-.386-1.036-.812-2.052-1.239-3.067a21.423,21.423,0,0,1-.914-4.428,20.556,20.556,0,0,1-.1-2.5,22.261,22.261,0,0,1,.691-4.956,21.391,21.391,0,0,1,4.591-8.653c.386-.447.772-.873,1.2-1.28.366-.345.731-.691,1.117-1,.386-.325.772-.63,1.178-.914.427-.3.853-.609,1.3-.873,2.925-1.808,5.261.284,8.206,1.544a29.959,29.959,0,0,0,8.369,2.641c5.18.589,10.583-1.341,15.3-3.311.284-.122.548-.223.833-.345l.975-.427c.142-.061.284-.122.406-.183.142-.061.264-.142.406-.2.3-.142.609-.3.934-.447.264-.142.528-.264.792-.406.325-.162.63-.345.934-.508.244-.142.488-.264.731-.406.325-.183.65-.386.975-.569.223-.142.447-.264.67-.406.325-.2.65-.406.975-.63.2-.142.427-.284.63-.406l.975-.67.609-.427c.325-.244.65-.467.955-.711.2-.142.386-.284.589-.447.3-.244.63-.508.934-.752.183-.163.386-.3.569-.467.325-.264.63-.548.934-.812.142-.142.3-.264.467-.406.041-.041.081-.061.122-.1a53.351,53.351,0,0,0,12.573-17.083c.548-1.178,1.056-2.4,1.523-3.616.284-.731,1.706-3.412-.081-2.8Z" transform="translate(-134.583 -0.501)" fill="none" stroke="#fff6f0" stroke-miterlimit="10" stroke-width="1"/>
    </g>
  </g>
</svg>
